# Blender 3.4.0
# www.blender.org
o Plane
v 0.458333 1.000000 0.000000
v 0.073529 1.000000 0.000000
v -0.235294 1.000000 0.000000
v -0.519608 1.000000 0.000000
v -1.000000 0.642157 0.000000
v -1.000000 0.321078 0.000000
v -1.000000 -0.090686 0.000000
v -1.000000 -0.433823 0.000000
v -1.000000 -1.000000 0.000000
v -0.671569 -1.000000 0.000000
v -0.367647 -1.000000 0.000000
v -0.063726 -1.000000 0.000000
v 0.269608 -1.000000 0.000000
v 0.651961 -1.000000 0.000000
v 1.000000 -0.436275 0.000000
v 1.000000 0.024510 0.000000
v 1.000000 0.500000 0.000000
v 0.231005 0.909926 0.000000
v -1.000000 1.000000 0.000000
v -0.191100 0.860294 0.000000
v 0.565257 0.881434 0.000000
v 1.000000 1.000000 0.000000
v 0.286152 0.630208 0.000000
v 0.742494 0.564645 0.000000
v -0.903799 0.666360 0.000000
v -0.581036 0.700214 0.000000
v -0.314798 0.465916 0.000000
v 0.009344 0.519455 0.000000
v 0.538603 0.319700 0.000000
v -0.789752 0.313419 0.000000
v 0.379749 -0.023246 0.000000
v 0.857843 0.243566 0.000000
v 0.249081 0.318321 0.000000
v 0.021752 0.109069 0.000000
v -0.150276 -0.118107 0.000000
v 0.813879 -0.045956 0.000000
v -0.822993 -0.085018 0.000000
v -0.454810 -0.113664 0.000000
v -0.405829 -0.519608 0.000000
v -0.846201 -0.455423 0.000000
v 0.819087 -0.354396 0.000000
v 0.466452 -0.465227 0.000000
v 0.834865 -0.663603 0.000000
v 0.013021 -0.532475 0.000000
v 1.000000 -1.000000 0.000000
v -0.848652 -0.804534 0.000000
v -0.138480 -0.819853 0.000000
v 0.196959 -0.801394 0.000000
v -0.480086 -0.877030 0.000000
v 0.562500 -0.839461 0.000000
vn -0.0000 -0.0000 1.0000
s 0
f 32//1 17//1 24//1
f 36//1 16//1 32//1
f 41//1 16//1 36//1
f 43//1 15//1 41//1
f 19//1 26//1 4//1
f 4//1 20//1 3//1
f 3//1 20//1 2//1
f 2//1 18//1 1//1
f 1//1 21//1 22//1
f 24//1 22//1 21//1
f 27//1 20//1 26//1
f 28//1 23//1 20//1
f 23//1 21//1 18//1
f 25//1 26//1 19//1
f 30//1 26//1 25//1
f 29//1 24//1 23//1
f 6//1 25//1 5//1
f 33//1 29//1 23//1
f 31//1 29//1 33//1
f 36//1 32//1 29//1
f 35//1 34//1 27//1
f 42//1 36//1 31//1
f 8//1 37//1 7//1
f 39//1 35//1 38//1
f 44//1 31//1 35//1
f 44//1 42//1 31//1
f 48//1 42//1 44//1
f 46//1 39//1 40//1
f 47//1 44//1 39//1
f 47//1 48//1 44//1
f 37//1 30//1 6//1 7//1
f 10//1 49//1 46//1
f 11//1 47//1 49//1
f 12//1 48//1 47//1
f 13//1 50//1 48//1
f 18//1 2//1 20//1
f 32//1 16//1 17//1
f 41//1 15//1 16//1
f 43//1 45//1 15//1
f 4//1 26//1 20//1
f 19//1 5//1 25//1
f 1//1 18//1 21//1
f 20//1 23//1 18//1
f 27//1 28//1 20//1
f 23//1 24//1 21//1
f 30//1 27//1 26//1
f 6//1 30//1 25//1
f 28//1 33//1 23//1
f 27//1 34//1 28//1
f 34//1 33//1 28//1
f 29//1 32//1 24//1
f 31//1 36//1 29//1
f 30//1 38//1 27//1
f 38//1 35//1 27//1
f 37//1 38//1 30//1
f 34//1 31//1 33//1
f 35//1 31//1 34//1
f 37//1 39//1 38//1
f 42//1 41//1 36//1
f 8//1 40//1 37//1
f 40//1 39//1 37//1
f 39//1 44//1 35//1
f 42//1 43//1 41//1
f 49//1 47//1 39//1
f 48//1 50//1 42//1
f 50//1 43//1 42//1
f 46//1 49//1 39//1
f 50//1 45//1 43//1
f 9//1 10//1 46//1
f 10//1 11//1 49//1
f 11//1 12//1 47//1
f 12//1 13//1 48//1
f 13//1 14//1 50//1
f 14//1 45//1 50//1
f 22//1 24//1 17//1
f 46//1 40//1 8//1 9//1
